<?xml version="1.0" encoding="UTF-8"?>
<svg id="Layer_1" data-name="Layer 1" xmlns="http://www.w3.org/2000/svg" viewBox="0 0 1080 1080">
  <path d="m720.42,581.92c-14.4.79-29.35-2.04-41.7-9.54-14.72-16.61-40.32-24.04-61.01-14.26-16.12,7.49-25.89,20.18-35.05,33.81-9.13,13.91-16.36,28.25-24.75,41.68-3.83,6.13-7.82,11.79-11.54,15.68-2.41,2.48-3.96,3.77-6.09,4.86-.06.04-.34.15-.75.3-2.62-1.09-4.13-2.47-6.81-5.16-25.45-28.5-39.19-85.76-82.36-94.69-18.48-3.71-38.37,4.47-50.4,18.25-.57.63-1.12,1.28-1.66,1.94-14.96,12.47-50.57,38.12-77.15,25.1-16.23-7.95-28.32-24.13-33.17-44.4-9.76-40.8,8.56-94.73,51.59-151.86,36.58-48.55,82.76-79.83,133.54-90.45,42.7-8.92,80.22-1.42,99.38,7.72,10.21,4.87,19.43,11.15,27.57,18.77-22.11,10.73-39.72,28.67-50.09,56.02-.14.32.28.66.56.44,4.64-3.26,10.95-8.26,15.44-11.71,14.11-10.94,29.61-20.36,46.25-25.73,22.06-7.57,46.47-7.06,69.45-3.77,70.05,9.77,114.48,50.92,119.17,122.47,4.13,56.17-20.48,100.95-80.42,104.53Z" style="fill: #ffdf40; stroke-width: 0px;"/>
  <path d="m540,40c67.52,0,132.99,13.21,194.61,39.28,59.53,25.18,113.01,61.24,158.94,107.17,45.93,45.93,81.99,99.41,107.17,158.94,26.06,61.62,39.28,127.09,39.28,194.61s-13.21,132.99-39.28,194.61c-25.18,59.53-61.24,113.01-107.17,158.94-45.93,45.93-99.41,81.99-158.94,107.17-61.62,26.06-127.09,39.28-194.61,39.28s-132.99-13.21-194.61-39.28c-59.54-25.18-113.01-61.24-158.94-107.17-45.93-45.93-81.99-99.41-107.17-158.94-26.06-61.62-39.28-127.09-39.28-194.61s13.21-132.99,39.28-194.61c25.18-59.54,61.24-113.01,107.17-158.94,45.93-45.93,99.41-81.99,158.94-107.17,61.62-26.06,127.09-39.28,194.61-39.28h0Zm0-40C241.77,0,0,241.77,0,540s241.77,540,540,540,540-241.77,540-540S838.23,0,540,0h0Zm223.25,351.31c-29.94-17.43-64.42-24.41-98.54-24.7-7.32,0-14.5.38-21.47,1.17-14.45-18.47-32.45-32.93-53.53-42.98-25.97-12.39-72.39-21.72-124.79-10.77-42.12,8.81-103.61,34.27-157.29,105.53-64.53,85.66-67.46,148.02-58.55,185.24,7.64,31.92,27.49,57.8,54.47,71.01,11.1,5.43,22.39,7.66,33.46,7.66,15.05,0,29.67-4.11,42.81-9.9-2.76,63.86,28.2,148.06,60.64,180.03,13.18,14.37,36.56,13.92,49.04-1.11,11.62-13.81,9.85-34.42-3.96-46.04-17.48-16.26-30.57-46.43-38.7-69.33-7.98-22.77-19.86-70.05-8.05-91.07.82-1.34,1.83-2.06,2.88-2.6.26-.14.34-.22.29-.28-.04-.06-.17-.13-.18-.2-.01-.07.11-.13.45-.05,12.9,4.97,32.96,41.69,43.21,54.91,10.91,14.84,23.7,30.38,42.97,35.36,3.55.88,7.36,1.33,11.14,1.27,13.08.53,26.68-6.72,35.47-15.03,13.34-12.24,23.01-27.84,32.68-42.28,6.37-9.54,12.09-18.36,19.28-26.38,2.93-3.2,6.68-6.83,9.88-7.85.34-.08.47-.02.45.05,0,.07-.14.14-.18.2s.03.14.29.28c.26.15.71.4,1.31.78,6.12,6.04,6.68,20.86,6.41,30.79-1.14,38.23-23.73,105.09-51.59,131.43-14.61,12.19-15.59,34.75-2.03,48.13,13.09,13.11,34.55,12.59,47.11-.98,14.16-14.34,23.9-31.8,32.11-49.44,18.3-41.11,33.12-96.19,27.48-143.09,11.9,1.73,24.03,1.62,35.57-.16,66.17-9.19,104.51-60.73,103.99-125.78-.13-57.81-22.78-114.06-74.53-143.82Zm-42.83,230.61c-14.4.79-29.35-2.04-41.7-9.54-14.72-16.61-40.32-24.04-61.01-14.26-16.12,7.49-25.89,20.18-35.05,33.81-9.13,13.91-16.36,28.25-24.75,41.68-3.83,6.13-7.82,11.79-11.54,15.68-2.41,2.48-3.96,3.77-6.09,4.86-.06.04-.34.15-.75.3-2.62-1.09-4.13-2.47-6.81-5.16-25.45-28.5-39.19-85.76-82.36-94.69-18.48-3.71-38.37,4.47-50.4,18.25-.57.63-1.12,1.28-1.66,1.94-14.96,12.47-50.57,38.12-77.15,25.1-16.23-7.95-28.32-24.13-33.17-44.4-9.76-40.8,8.56-94.73,51.59-151.86,36.58-48.55,82.76-79.83,133.54-90.45,42.7-8.92,80.22-1.42,99.38,7.72,10.21,4.87,19.43,11.15,27.57,18.77-22.11,10.73-39.72,28.67-50.09,56.02-.14.32.28.66.56.44,4.64-3.26,10.95-8.26,15.44-11.71,14.11-10.94,29.61-20.36,46.25-25.73,22.06-7.57,46.47-7.06,69.45-3.77,70.05,9.77,114.48,50.92,119.17,122.47,4.13,56.17-20.48,100.95-80.42,104.53Zm-112.16-54.81c20.51-3.99,46.42-24.09,40.41-37.84-5.84-13.26-34.18-13.16-50.87-9.99-16.18,3.58-29.02,13.65-30.98,25.48-41.52,1.81-82.77-5.31-120.96-20.81-.35-.14-.73-.28-1.1-.39-5.76-1.72-11.86.93-13.62,6.21-1.77,5.28,1.83,11.32,8.08,13.18,42.28,12.64,86.07,15.72,128.34,9.78,3.75,11.3,21.14,18.68,40.7,14.38Zm-168.94-100.58c-.56,1.41.19,3.04,1.7,3.62,12.7,4.87,25.67,8.78,38.8,11.71,2.35.52,4.7,1.02,7.06,1.48,1.12.22,1.87,1.26,1.66,2.34-.2,1.07-1.29,1.77-2.43,1.55-15.77-3.09-31.34-7.55-46.52-13.38-1.52-.58-3.2.07-3.77,1.49-.56,1.41.24,3.06,1.79,3.65,15.48,5.94,31.36,10.49,47.44,13.64,1.16.23,1.93,1.28,1.73,2.35-.2,1.07-1.32,1.77-2.5,1.54-16.3-3.19-32.4-7.8-48.09-13.83-1.57-.6-3.29.04-3.86,1.45-.56,1.41.28,3.07,1.88,3.69,16,6.14,32.4,10.84,49.01,14.09,1.2.24,2,1.29,1.8,2.36-.2,1.07-1.35,1.76-2.57,1.53-3.29-.64-6.57-1.34-9.83-2.1-13.47-3.11-26.79-7.17-39.83-12.18-1.62-.62-3.39,0-3.95,1.42-.56,1.41.32,3.09,1.98,3.73,13.29,5.1,26.84,9.24,40.57,12.41,3.33.77,6.67,1.48,10.02,2.14,2.84.56,5.68,1.07,8.53,1.55,11.59,1.94,21.92-2.77,24.93-10.02,40.69,5.54,82.82,2.51,123.52-9.62.38-.11.77-.25,1.14-.4,5.81-2.37,8.5-8.52,6.15-13.48-2.36-4.96-8.51-7.03-13.86-4.85-36.7,14.99-76.34,22.04-116.29,20.6-1.81-7.67-9.87-13.99-20.03-15.7-2.53-.42-5.06-.88-7.58-1.37-2.31-.45-4.62-.94-6.92-1.45-12.87-2.87-25.58-6.7-38.03-11.47-1.47-.56-3.11.11-3.67,1.52Z" style="fill: #142432; stroke-width: 0px;"/>
</svg>